<?xml version="1.0" encoding="UTF-8"?>
<svg version="1.1" xmlns="http://www.w3.org/2000/svg" width="1080" height="1080">
<path d="M0 0 C2.83035597 0.02981591 5.66056868 0.05141646 8.49104691 0.06523895 C35.01177536 0.20766694 35.01177536 0.20766694 47.09092903 4.81611252 C49.42331638 5.48608129 51.75653952 6.15315363 54.09092903 6.81611252 C55.59217183 7.47637019 57.07714422 8.17727841 58.52842903 8.94111252 C59.20776497 9.29431564 59.88710091 9.64751877 60.58702278 10.01142502 C61.08331184 10.27697189 61.57960091 10.54251877 62.09092903 10.81611252 C62.09092903 11.47611252 62.09092903 12.13611252 62.09092903 12.81611252 C62.64780403 12.97466721 63.20467903 13.13322189 63.77842903 13.29658127 C69.33559781 14.99564807 74.56250703 17.07738808 79.09092903 20.81611252 C79.09092903 21.47611252 79.09092903 22.13611252 79.09092903 22.81611252 C79.98005989 23.05547531 80.86919075 23.2948381 81.78526497 23.54145432 C85.42363452 24.94440316 87.24269117 26.46538689 89.98155403 29.21064377 C90.85553841 30.08398361 91.72952278 30.95732346 92.62999153 31.85712814 C93.52460091 32.77171799 94.41921028 33.68630783 95.34092903 34.62861252 C96.25100716 35.5316008 97.16108528 36.43458908 98.09874153 37.36494064 C102.112135 41.41703894 105.06838068 44.44755564 107.09092903 49.81611252 C107.75092903 50.14611252 108.41092903 50.47611252 109.09092903 50.81611252 C110.12528459 52.46167818 111.11856416 54.13317332 112.09092903 55.81611252 C112.79217903 56.80611252 113.49342903 57.79611252 114.21592903 58.81611252 C116.02406382 61.70912819 116.47228429 63.54613314 117.09092903 66.81611252 C117.54338997 67.24279221 117.99585091 67.66947189 118.46202278 68.10908127 C124.47221961 74.40753694 127.69967646 87.23672166 129.09092903 95.81611252 C129.26382454 96.69340012 129.43672005 97.57068771 129.61485481 98.47455978 C130.14722714 102.21126752 130.16244767 105.83290269 130.08311653 109.59345627 C130.06560188 111.09149639 130.04869344 112.5895437 130.03233528 114.08759689 C130.0014178 116.42235762 129.96586677 118.75675036 129.91954231 121.091259 C129.87693016 123.3628698 129.85369347 125.63405284 129.83311653 127.90595627 C129.81449562 128.59471344 129.79587471 129.28347061 129.77668953 129.99309921 C129.75013531 135.07296811 130.73723263 138.40748719 133.09092903 142.81611252 C135.69479842 144.55202544 137.19251858 145.2349507 140.09092903 146.06611252 C143.83355702 147.31365518 147.4517328 148.71011428 151.02842903 150.37861252 C151.94495247 150.79240158 152.86147591 151.20619064 153.80577278 151.63251877 C160.17198604 157.71578921 158.51921451 170.36864762 158.71592903 178.50361252 C158.75460091 179.76367111 158.79327278 181.02372971 158.83311653 182.32197189 C159.76489495 214.85102209 159.76489495 214.85102209 156.65342903 218.50361252 C156.13780403 218.93673752 155.62217903 219.36986252 155.09092903 219.81611252 C154.80217903 220.59986252 154.51342903 221.38361252 154.21592903 222.19111252 C151.82028857 227.78094025 146.98074816 230.5562331 142.09092903 233.81611252 C138.29459793 237.17100977 136.12637002 240.19011027 134.09092903 244.81611252 C133.58948372 245.75197189 133.08803841 246.68783127 132.57139778 247.65205002 C130.15408881 253.29689759 130.33306642 259.51825861 130.02842903 265.56611252 C129.89978717 267.99884474 129.76343513 270.43118517 129.61827278 272.86298752 C129.56405159 273.93387619 129.5098304 275.00476486 129.45396614 276.10810471 C129.09092903 278.81611252 129.09092903 278.81611252 127.09092903 281.81611252 C126.76501332 283.28412603 126.50066104 284.76636753 126.27842903 286.25361252 C124.48762649 295.85119486 120.01880271 304.47435045 115.09092903 312.81611252 C114.66296028 313.58181564 114.23499153 314.34751877 113.79405403 315.13642502 C107.95942487 325.33063664 100.9912554 334.38018327 92.40342903 342.37861252 C91.62020271 343.11120285 91.62020271 343.11120285 90.82115364 343.85859299 C88.11506132 346.29394857 85.44947707 348.2669067 82.25889778 350.03095627 C79.03728624 351.45699885 79.03728624 351.45699885 78.09092903 353.81611252 C76.43797278 354.83286944 74.74244676 355.78105634 73.02842903 356.69111252 C72.10932747 357.18353439 71.19022591 357.67595627 70.24327278 358.18330002 C69.20299934 358.72212814 68.16272591 359.26095627 67.09092903 359.81611252 C66.48176643 360.13853928 65.87260384 360.46096603 65.24498177 360.7931633 C60.38340578 363.31202114 55.47635298 365.23406191 50.27842903 366.94111252 C49.54817513 367.19247971 48.81792122 367.44384689 48.06553841 367.70283127 C38.94548971 370.73491012 29.72759404 372.07487894 20.14756966 372.44233322 C19.19957497 372.48348188 18.25158028 372.52463055 17.27485847 372.56702614 C14.09929591 372.69906389 10.92345633 372.81590053 7.74717903 372.92939377 C6.62025139 372.97138712 5.49332375 373.01338047 4.33224678 373.05664635 C-28.03104873 374.23047965 -60.41232617 374.08359689 -92.79181385 374.01670945 C-99.62711046 374.00325851 -106.46237518 374.00101276 -113.29768324 374.00165862 C-121.63538119 374.00233902 -129.97306061 373.99539718 -138.31075287 373.98621202 C-140.65520744 373.98411271 -142.99965889 373.98337546 -145.3441143 373.9829731 C-225.52128444 373.95618956 -225.52128444 373.95618956 -258.90907097 348.81611252 C-259.98784964 348.03136621 -261.06729481 347.24753544 -262.14735222 346.46455002 C-273.05156623 338.45731957 -281.41711305 329.09095559 -288.90907097 317.81611252 C-289.43243034 317.10068283 -289.95578972 316.38525314 -290.49500847 315.64814377 C-294.91686048 309.48673068 -297.39534712 302.93551831 -299.90907097 295.81611252 C-300.65843789 293.7742134 -301.40839123 291.73252936 -302.15907097 289.69111252 C-303.82732262 285.08290919 -305.06194291 281.06381224 -305.43397331 276.15473557 C-305.56949104 274.41228813 -305.56949104 274.41228813 -305.70774651 272.63463974 C-305.80254295 271.37839294 -305.8973394 270.12214615 -305.99500847 268.82783127 C-306.15155022 266.85507129 -306.30810691 264.88231236 -306.46553802 262.90962315 C-306.8531752 258.04425337 -307.23409702 253.17841837 -307.60145378 248.31147385 C-307.80785639 245.58170369 -308.0209056 242.85260783 -308.24125481 240.12392807 C-308.448459 237.55488997 -308.6459057 234.98504194 -308.83250237 232.4144249 C-308.92915184 231.24333679 -309.02580132 230.07224869 -309.12537956 228.86567307 C-309.20452599 227.83991669 -309.28367241 226.81416031 -309.36521721 225.7573204 C-309.9979841 222.33526264 -311.1165884 219.79185998 -312.90907097 216.81611252 C-315.38866294 216.02432083 -315.38866294 216.02432083 -318.15907097 216.19111252 C-323.70102031 215.93420096 -326.66434413 215.51895934 -330.90907097 211.81611252 C-333.55063727 204.52664741 -333.18618288 196.45050436 -333.09657097 188.81611252 C-333.08650017 187.63653976 -333.07642937 186.45696701 -333.06605339 185.24164963 C-333.02748109 181.76611953 -332.96931409 178.29132377 -332.90907097 174.81611252 C-332.89601921 173.36229172 -332.89601921 173.36229172 -332.88270378 171.8791008 C-332.85630722 169.37734428 -332.79662372 166.87931761 -332.72157097 164.37861252 C-332.71323235 163.29870041 -332.71323235 163.29870041 -332.70472527 162.19697189 C-332.54530078 158.59564739 -332.1322815 157.05428046 -329.63563347 154.39033127 C-327.00053198 152.8689188 -325.46407259 152.25814471 -322.47157097 152.06611252 C-321.70071159 152.01068283 -320.92985222 151.95525314 -320.13563347 151.89814377 C-317.38971959 151.79697852 -314.65622698 151.74567262 -311.90907097 151.81611252 C-309.11007984 144.87948234 -308.43406276 138.47663327 -308.12000847 131.07392502 C-307.90907097 127.81611252 -307.90907097 127.81611252 -306.90907097 124.81611252 C-306.72721878 123.00186117 -306.59002163 121.18297031 -306.47938347 119.36298752 C-304.8974866 95.17180273 -301.17458371 74.96848532 -286.90907097 54.81611252 C-285.89973503 53.36398361 -285.89973503 53.36398361 -284.87000847 51.88251877 C-281.49342395 47.12115521 -278.11826626 42.87586893 -273.90907097 38.81611252 C-273.43421257 38.35253342 -272.95935417 37.88895432 -272.47010612 37.41132736 C-266.13548207 31.26150595 -259.89116175 25.73485188 -252.24891472 21.21845627 C-249.88468342 19.85629715 -249.88468342 19.85629715 -247.73719597 18.18720627 C-245.56595016 16.55877191 -243.43456584 15.82631047 -240.90907097 14.81611252 C-239.52807896 14.03494532 -238.15376167 13.2419299 -236.78407097 12.44111252 C-227.31649486 7.09193202 -216.67570964 3.94928294 -205.90907097 2.69111252 C-205.23618034 2.60474533 -204.56328972 2.51837814 -203.87000847 2.42939377 C-200.58500722 2.02986659 -197.40794709 1.81713941 -194.09657097 1.82392502 C-190.88601579 1.98281725 -190.88601579 1.98281725 -187.90907097 0.81611252 C-185.97745404 0.71123974 -184.04243981 0.66538389 -182.10803032 0.65116501 C-180.28862434 0.63431404 -180.28862434 0.63431404 -178.43246269 0.61712265 C-177.08408984 0.60962069 -175.7357164 0.60222378 -174.38734245 0.59492111 C-172.96690874 0.58369853 -171.54647821 0.57206599 -170.12605095 0.56005478 C-166.24384566 0.52860485 -162.36162301 0.50349834 -158.4793632 0.47985792 C-155.18987424 0.45929806 -151.90040893 0.43577862 -148.61093956 0.41232073 C-140.76901757 0.35650056 -132.92707327 0.30592032 -125.08509636 0.25849533 C-118.03882185 0.21580302 -110.99261809 0.16740986 -103.94642448 0.11298752 C-69.29887555 -0.15324996 -34.64759858 -0.36762134 0 0 Z " fill="#F3720B" transform="translate(627.9090709686279,258.18388748168945)"/>
<path d="M0 0 C3 1 3 1 4.5 3.84375 C4.995 5.0503125 5.49 6.256875 6 7.5 C6.39191528 8.45024048 6.39191528 8.45024048 6.79174805 9.41967773 C9.38865654 15.79243446 11.89442303 22.18227533 13 29 C13.17289551 29.8772876 13.34579102 30.7545752 13.52392578 31.65844727 C14.05629811 35.395155 14.07151864 39.01679017 13.9921875 42.77734375 C13.97467285 44.27538387 13.95776441 45.77343118 13.94140625 47.27148438 C13.91048877 49.6062451 13.87493773 51.94063784 13.82861328 54.27514648 C13.78600113 56.54675728 13.76276443 58.81794032 13.7421875 61.08984375 C13.72356659 61.77860092 13.70494568 62.46735809 13.6857605 63.17698669 C13.65920628 68.25685559 14.6463036 71.59137467 17 76 C19.60386938 77.73591292 21.10158955 78.41883818 24 79.25 C27.74262799 80.49754266 31.36080377 81.89400176 34.9375 83.5625 C35.85402344 83.97628906 36.77054688 84.39007813 37.71484375 84.81640625 C44.081057 90.89967669 42.42828548 103.5525351 42.625 111.6875 C42.66367187 112.94755859 42.70234375 114.20761719 42.7421875 115.50585938 C43.67396592 148.03490957 43.67396592 148.03490957 40.5625 151.6875 C40.046875 152.120625 39.53125 152.55375 39 153 C38.71125 153.78375 38.4225 154.5675 38.125 155.375 C35.72935954 160.96482773 30.88981913 163.74012058 26 167 C22.2036689 170.35489725 20.03544099 173.37399775 18 178 C17.49855469 178.93585938 16.99710938 179.87171875 16.48046875 180.8359375 C14.06315978 186.48078507 14.24213739 192.70214609 13.9375 198.75 C13.80885814 201.18273222 13.6725061 203.61507265 13.52734375 206.046875 C13.47312256 207.11776367 13.41890137 208.18865234 13.36303711 209.29199219 C13 212 13 212 11 215 C10.67408429 216.46801351 10.40973201 217.95025501 10.1875 219.4375 C8.39669746 229.03508235 3.92787368 237.65823793 -1 246 C-1.64195312 247.14855469 -1.64195312 247.14855469 -2.296875 248.3203125 C-8.13150416 258.51452412 -15.09967363 267.56407076 -23.6875 275.5625 C-24.47072632 276.29509033 -24.47072632 276.29509033 -25.26977539 277.04248047 C-27.97586772 279.47783606 -30.64145196 281.45079418 -33.83203125 283.21484375 C-37.0536428 284.64088633 -37.0536428 284.64088633 -38 287 C-39.65295626 288.01675692 -41.34848227 288.96494382 -43.0625 289.875 C-43.98160156 290.36742187 -44.90070313 290.85984375 -45.84765625 291.3671875 C-46.88792969 291.90601563 -47.92820312 292.44484375 -49 293 C-49.6091626 293.32242676 -50.2183252 293.64485352 -50.84594727 293.97705078 C-55.70752325 296.49590863 -60.61457605 298.41794939 -65.8125 300.125 C-66.54275391 300.37636719 -67.27300781 300.62773438 -68.02539062 300.88671875 C-77.14543932 303.9187976 -86.36333499 305.25876642 -95.94335938 305.6262207 C-96.89135406 305.66736937 -97.83934875 305.70851803 -98.81607056 305.75091362 C-101.99163312 305.88295137 -105.16747271 305.99978801 -108.34375 306.11328125 C-109.47067764 306.1552746 -110.59760529 306.19726795 -111.75868225 306.24053383 C-144.12197776 307.41436713 -176.5032552 307.26748437 -208.88274288 307.20059693 C-215.71803949 307.18714599 -222.55330421 307.18490025 -229.38861227 307.1855461 C-237.72631022 307.1862265 -246.06398964 307.17928466 -254.4016819 307.1700995 C-256.74613647 307.16800019 -259.09058792 307.16726294 -261.43504333 307.16686058 C-341.61221347 307.14007705 -341.61221347 307.14007705 -375 282 C-376.07877867 281.21525369 -377.15822384 280.43142292 -378.23828125 279.6484375 C-389.14249526 271.64120705 -397.50804208 262.27484307 -405 251 C-405.78503906 249.92685547 -405.78503906 249.92685547 -406.5859375 248.83203125 C-411.00778951 242.67061817 -413.48627616 236.11940579 -416 229 C-416.74936692 226.95810088 -417.49932026 224.91641684 -418.25 222.875 C-419.91825165 218.26679667 -421.15287194 214.24769972 -421.52490234 209.33862305 C-421.6152475 208.17699142 -421.70559265 207.0153598 -421.79867554 205.81852722 C-421.89347198 204.56228043 -421.98826843 203.30603363 -422.0859375 202.01171875 C-422.24247925 200.03895877 -422.39903594 198.06619984 -422.55646706 196.09351063 C-422.94410423 191.22814085 -423.32502606 186.36230586 -423.69238281 181.49536133 C-423.89878542 178.76559118 -424.11183464 176.03649531 -424.33218384 173.30781555 C-424.53938803 170.73877746 -424.73683473 168.16892942 -424.9234314 165.59831238 C-425.02008087 164.42722427 -425.11673035 163.25613617 -425.21630859 162.04956055 C-425.29545502 161.02380417 -425.37460144 159.99804779 -425.45614624 158.94120789 C-426.08920233 155.51758616 -427.20406272 152.97579125 -429 150 C-431.54502825 149.17207871 -431.54502825 149.17207871 -434.375 149.3125 C-438.7238198 149.15697929 -441.52457588 148.87621306 -445 146 C-445 145.67 -445 145.34 -445 145 C-439.39 145 -433.78 145 -428 145 C-427.67 136.75 -427.34 128.5 -427 120 C-425.515 120.99 -425.515 120.99 -424 122 C-424 122.66 -424 123.32 -424 124 C-423.34 124 -422.68 124 -422 124 C-419.600464 127.59930401 -419.72024599 130.18343549 -419.74462891 134.33862305 C-419.74100845 135.08389252 -419.737388 135.82916199 -419.73365784 136.59701538 C-419.72676164 138.2175391 -419.72425882 139.83808605 -419.72560501 141.45862389 C-419.7265725 144.0383951 -419.71359552 146.61775206 -419.69662476 149.19746399 C-419.65046335 156.5333826 -419.6258151 163.86926348 -419.61914062 171.20532227 C-419.61407059 175.6958712 -419.58953243 180.18599668 -419.55381393 184.67640114 C-419.54412719 186.37408697 -419.54162195 188.07183197 -419.54698563 189.76953697 C-419.62207034 214.74146353 -411.5588323 239.93004808 -395 259 C-394.36191406 259.75796875 -393.72382813 260.5159375 -393.06640625 261.296875 C-388.72588402 266.33966496 -384.19409345 270.84472524 -379 275 C-378.50177734 275.40476562 -378.00355469 275.80953125 -377.49023438 276.2265625 C-362.4818022 288.28974417 -345.80294409 295.93888168 -327 300 C-326.23458012 300.17271801 -325.46916023 300.34543602 -324.68054581 300.52338791 C-314.49464147 302.53150453 -304.30611053 302.28114327 -293.97167969 302.25878906 C-291.85796488 302.26150311 -289.74425103 302.26506636 -287.63053894 302.26940918 C-281.91752373 302.2784884 -276.20458115 302.2750068 -270.49156475 302.26865101 C-264.49195354 302.26356517 -258.49234829 302.26828987 -252.49273682 302.27142334 C-242.41555676 302.27505659 -232.33840606 302.27028188 -222.26123047 302.26074219 C-210.64377697 302.24987072 -199.02639376 302.25337632 -187.40894198 302.264395 C-177.40512963 302.27350028 -167.40133832 302.27473699 -157.39752316 302.26951766 C-151.43580809 302.26641422 -145.47412593 302.26594337 -139.51241302 302.27259064 C-133.90134746 302.27841034 -128.29037155 302.27428338 -122.67931557 302.26280212 C-120.63162954 302.26017959 -118.58393585 302.26087891 -116.53625298 302.26532745 C-83.10907139 302.33119568 -51.49493864 295.95733977 -26 273 C-25.24332031 272.32582031 -24.48664063 271.65164063 -23.70703125 270.95703125 C-1.53723038 250.04286512 10.61244108 220.80427825 11.53125 190.63671875 C11.5621875 189.35410156 11.593125 188.07148437 11.625 186.75 C11.66330989 185.4075304 11.70236841 184.06508194 11.7421875 182.72265625 C11.83544667 179.48190024 11.92124464 176.24113534 12 173 C3.23725252 173.03809478 -5.52501875 173.09751086 -14.28742409 173.18390274 C-18.3565084 173.22335666 -22.425377 173.25555515 -26.49462891 173.27099609 C-30.4241585 173.28617676 -34.35309495 173.32064636 -38.28236008 173.36830902 C-39.77895314 173.38310846 -41.2756309 173.3910402 -42.77229691 173.39188385 C-44.87438917 173.39425981 -46.97485051 173.42138479 -49.07666016 173.45410156 C-50.8686937 173.46742523 -50.8686937 173.46742523 -52.69692993 173.48101807 C-56.69337587 174.10894396 -58.86525777 175.48267072 -62 178 C-64.60335969 182.3699252 -65.19346653 186.16311182 -65.8125 191.1875 C-67.25507542 201.61010738 -71.66018309 210.01044835 -79.92578125 216.515625 C-91.74262487 225.1631198 -104.74239511 224.43393296 -118.73461914 224.38818359 C-120.82836683 224.39225378 -122.92211237 224.39759817 -125.01585388 224.40411377 C-130.67690443 224.41773903 -136.33779016 224.41250873 -141.99884343 224.40297651 C-147.93587374 224.39535607 -153.87289038 224.40243204 -159.80992126 224.40713501 C-169.77703371 224.41258519 -179.74407935 224.40541984 -189.71118164 224.39111328 C-201.22026897 224.37478375 -212.72919688 224.38008052 -224.23828036 224.3965925 C-234.13667952 224.41022301 -244.03503081 224.4121195 -253.93343633 224.40427649 C-259.83798074 224.39960917 -265.74245029 224.39894933 -271.64698982 224.40888596 C-277.19814934 224.41757625 -282.749104 224.41149594 -288.30024147 224.39420319 C-290.33270681 224.39024957 -292.36518951 224.39135303 -294.39764786 224.39799118 C-309.61117069 224.44308421 -321.2526611 223.82235159 -333 213 C-345.0657003 198.58610958 -343.50246747 179.69530673 -343.25 162.125 C-343.22990091 159.68360843 -343.21165618 157.24220085 -343.1953125 154.80078125 C-343.15159586 148.86678683 -343.08275555 142.93357313 -343 137 C-336.4 137 -329.8 137 -323 137 C-322.01 140.465 -322.01 140.465 -321 144 C-311.1 144.495 -311.1 144.495 -301 145 C-302.86173613 139.7556365 -304.72614457 134.51236528 -306.59692383 129.27124023 C-307.22960225 127.49638129 -307.86084066 125.72100823 -308.49047852 123.94506836 C-312.67504849 112.14611727 -317.1449979 100.54078362 -322 89 C-328.93 88.67 -335.86 88.34 -343 88 C-343.02576824 78.78785334 -342.97296969 69.58461749 -342.75 60.375 C-342.73582031 59.14265625 -342.72164063 57.9103125 -342.70703125 56.640625 C-342.35598693 43.41327507 -338.63720103 33.01488672 -329.0703125 23.67578125 C-321.95543442 17.91675729 -314.48015617 15.85013102 -305.51306152 15.85955811 C-304.19778748 15.85510142 -304.19778748 15.85510142 -302.85594225 15.8505547 C-299.90590506 15.8418554 -296.95590839 15.84035839 -294.00585938 15.83886719 C-291.89521192 15.83423973 -289.78456531 15.82921517 -287.67391968 15.82382202 C-281.9297406 15.81068543 -276.18557321 15.80425012 -270.44138145 15.79981136 C-266.85171221 15.7968815 -263.26204617 15.79277676 -259.67237854 15.78830719 C-248.43888727 15.77462637 -237.20540331 15.76496367 -225.97190428 15.7611053 C-213.00978216 15.75662878 -200.04776571 15.73910213 -187.08567572 15.7101047 C-177.06514187 15.68846742 -167.0446377 15.67839985 -157.02408075 15.67706418 C-151.04056393 15.67601724 -145.05714637 15.67013343 -139.07365417 15.65224457 C-133.43972221 15.63572954 -127.80596373 15.63362512 -122.17201614 15.64238358 C-120.10933085 15.64315222 -118.0466361 15.6388341 -115.98397446 15.62892532 C-87.46256525 15.50000141 -87.46256525 15.50000141 -77.3515625 24.4609375 C-70.11612007 32.28403008 -67.36222643 41.31924452 -65.51904297 51.5793457 C-64.40597897 57.41121856 -62.7520358 61.95963457 -57.78291321 65.64375305 C-54.39185608 67.29637767 -52.04710875 67.36184807 -48.28198242 67.34057617 C-47.30065338 67.34123329 -47.30065338 67.34123329 -46.29949951 67.34190369 C-44.1511787 67.33982456 -42.00365211 67.31653662 -39.85546875 67.29296875 C-38.36046271 67.28736964 -36.86545115 67.28310103 -35.37043762 67.28010559 C-31.44614314 67.26868152 -27.52218469 67.23923573 -23.59802246 67.20599365 C-19.58948308 67.17523993 -15.58088911 67.16158896 -11.57226562 67.14648438 C-3.71468999 67.11436333 4.14261314 67.06319691 12 67 C11.88674329 63.03339753 11.76693729 59.06704866 11.64141846 55.10081482 C11.57936747 53.09868313 11.52229879 51.09639901 11.46533203 49.09411621 C10.96384368 33.47668722 8.46747949 18.80600898 1.34375 4.7265625 C0 2 0 2 0 0 Z " fill="#010000" transform="translate(744,325)"/>
<path d="M0 0 C0.60473145 0.31573975 1.20946289 0.63147949 1.83251953 0.95678711 C7.38844715 3.9023311 12.7678059 7.1416857 18.1328125 10.41796875 C26.51470955 15.52352201 35.03637542 20.39888495 43.52148438 25.33007812 C46.34437527 26.97198253 49.16468348 28.61823411 51.984375 30.265625 C53.65616624 31.2397271 55.32803662 32.2136934 57 33.1875 C57.74604492 33.62433105 58.49208984 34.06116211 59.26074219 34.51123047 C65.91036195 38.3747897 72.73880141 41.75720896 79.73828125 44.9375 C81.5 46.0625 81.5 46.0625 82.8125 47.984375 C85.16195446 50.87768466 87.79968033 51.80354681 91.1875 53.3125 C98.4643319 56.74169296 104.19363199 60.72652814 108.0625 68 C108.86960504 73.64973528 108.4745888 78.25254937 105.75 83.3125 C101.17643825 88.9024088 96.53515827 92.49090986 90.3125 96 C88.78494846 96.87854505 87.25760352 97.75744944 85.73046875 98.63671875 C84.99876465 99.0548584 84.26706055 99.47299805 83.51318359 99.90380859 C81.02662304 101.33495295 78.57387393 102.81793765 76.125 104.3125 C72.96719285 106.21649302 69.773088 108.01997566 66.52734375 109.76953125 C60.11186252 113.25615937 53.77262797 116.86989879 47.4375 120.5 C46.21740087 121.19789531 44.99726672 121.8957294 43.77709961 122.59350586 C37.62678914 126.11285269 31.48421494 129.64528434 25.3515625 133.1953125 C24.20953369 133.8560376 23.06750488 134.5167627 21.89086914 135.19750977 C19.74832441 136.4382778 17.60680197 137.68081366 15.46655273 138.92553711 C10.18098198 141.98791827 4.87041894 145.003311 -0.4765625 147.95703125 C-1.52279785 148.53686768 -2.5690332 149.1167041 -3.64697266 149.71411133 C-7.74659316 151.65166088 -10.04323542 151.84438852 -14.5 151.0625 C-20.64916108 148.77163607 -24.89534892 144.46947662 -28.5 139.0625 C-29.77385127 135.2409462 -29.62353188 131.6556553 -29.59765625 127.67578125 C-29.5962413 126.85877243 -29.59482635 126.04176361 -29.59336853 125.19999695 C-29.58777294 122.59162732 -29.57522129 119.98334366 -29.5625 117.375 C-29.55748443 115.60612103 -29.55292162 113.83724072 -29.54882812 112.06835938 C-29.53865603 107.73301318 -29.51907979 103.39785278 -29.5 99.0625 C-36.1 99.0625 -42.7 99.0625 -49.5 99.0625 C-49.5 90.08979045 -49.5 90.08979045 -46.0625 85.875 C-45.33804687 84.94300781 -44.61359375 84.01101563 -43.8671875 83.05078125 C-43.08601563 82.06464844 -42.30484375 81.07851563 -41.5 80.0625 C-35.64408532 72.41871757 -31.41868939 65.65594695 -29.5 56.0625 C-35.44 56.0625 -41.38 56.0625 -47.5 56.0625 C-47.5 51.1125 -47.5 46.1625 -47.5 41.0625 C-41.56 41.0625 -35.62 41.0625 -29.5 41.0625 C-29.54640625 39.061875 -29.5928125 37.06125 -29.640625 35 C-29.66846482 33.03729247 -29.69615266 31.07457981 -29.71972656 29.11181641 C-29.74946045 27.09902373 -29.80031729 25.08657866 -29.8515625 23.07421875 C-29.93753608 14.519848 -29.7065725 8.39231193 -23.5 2.00390625 C-22.84 1.54886719 -22.18 1.09382813 -21.5 0.625 C-20.84 0.15191406 -20.18 -0.32117188 -19.5 -0.80859375 C-12.95572542 -4.50252999 -6.4326692 -3.37715133 0 0 Z " fill="#2F83C2" transform="translate(511.5,370.9375)"/>
<path d="M0 0 C0.98608749 0.0028299 1.97217499 0.00565979 2.98814392 0.00857544 C6.10550612 0.01967745 9.22256992 0.04476305 12.33984375 0.0703125 C14.4667927 0.08035521 16.59374619 0.08947879 18.72070312 0.09765625 C23.90636315 0.11958402 29.09180304 0.15404404 34.27734375 0.1953125 C34.90792925 32.30343246 34.90792925 32.30343246 31.27734375 44.1953125 C30.97932861 45.19014648 30.97932861 45.19014648 30.67529297 46.20507812 C21.58238282 75.92901813 2.00321281 101.25831353 -25.4140625 116.23046875 C-34.50828972 121.05572428 -43.71831264 124.69910439 -53.72265625 127.1953125 C-54.77211426 127.4571936 -54.77211426 127.4571936 -55.84277344 127.72436523 C-62.77814618 129.28052772 -69.42402631 129.45539578 -76.51171875 129.390625 C-78.28837418 129.38638016 -78.28837418 129.38638016 -80.10092163 129.38204956 C-83.84993994 129.37093645 -87.59871126 129.3458483 -91.34765625 129.3203125 C-93.90364236 129.31027124 -96.45963225 129.3011474 -99.015625 129.29296875 C-105.25138505 129.27102621 -111.487003 129.23763789 -117.72265625 129.1953125 C-114.75366103 125.92706852 -111.62702391 125.04583832 -107.47265625 123.8828125 C-101.7650773 122.18373931 -96.14827002 120.35629729 -90.59765625 118.1953125 C-88.83035156 117.5146875 -88.83035156 117.5146875 -87.02734375 116.8203125 C-84.31698744 115.48756046 -82.73110789 114.45343403 -80.54296875 112.5078125 C-77.72265625 110.1953125 -77.72265625 110.1953125 -73.72265625 110.1953125 C-73.43390625 109.5765625 -73.14515625 108.9578125 -72.84765625 108.3203125 C-71.72265625 106.1953125 -71.72265625 106.1953125 -69.72265625 104.1953125 C-69.08714844 104.06125 -68.45164062 103.9271875 -67.796875 103.7890625 C-65.10631757 103.0188841 -64.27659881 101.86244102 -62.53515625 99.6953125 C-59.91247944 96.53911471 -57.18683537 93.6582489 -54.22265625 90.8203125 C-35.84385782 72.53480747 -27.63391159 46.5958484 -25.2421875 21.33984375 C-25.12472168 20.12941406 -25.12472168 20.12941406 -25.00488281 18.89453125 C-24.86273532 17.35049356 -24.73725078 15.80479214 -24.63183594 14.2578125 C-24.19065141 9.20382435 -23.25990483 5.88755788 -19.72265625 2.1953125 C-13.40006661 -0.16445031 -6.65206135 -0.07321535 0 0 Z " fill="#F67B08" transform="translate(721.72265625,497.8046875)"/>
<path d="M0 0 C1.91015625 1.36328125 1.91015625 1.36328125 3.7421875 3.80078125 C6.40901925 6.95292833 8.89624765 8.01982583 12.66015625 9.67578125 C19.97726405 13.09581644 25.62280761 17.0630658 29.47265625 24.30078125 C30.27976129 29.95051653 29.88474505 34.55333062 27.16015625 39.61328125 C22.58691871 45.2027938 17.94576196 48.79285004 11.72265625 52.30078125 C10.20408347 53.17127584 8.68585282 54.04236756 7.16796875 54.9140625 C6.43739258 55.33123535 5.70681641 55.7484082 4.95410156 56.17822266 C1.54063369 58.15731643 -1.78747347 60.27397498 -5.109375 62.40234375 C-7.08984375 63.36328125 -7.08984375 63.36328125 -11.08984375 63.36328125 C-11.08984375 61.05328125 -11.08984375 58.74328125 -11.08984375 56.36328125 C-12.66572266 56.41548828 -12.66572266 56.41548828 -14.2734375 56.46875 C-26.12320879 56.74833231 -35.05988286 55.82120842 -44.08984375 47.36328125 C-49.23974702 41.20125826 -49.3539928 35.42730626 -49.46484375 27.73828125 C-49.50222656 26.77792969 -49.53960938 25.81757813 -49.578125 24.828125 C-49.67754861 16.68643566 -47.28321893 11.46904933 -42.33984375 5.11328125 C-30.59960987 -4.01801177 -13.75047796 -6.06418538 0 0 Z " fill="#F6FBFD" transform="translate(590.08984375,414.63671875)"/>
<path d="M0 0 C8.58 0 17.16 0 26 0 C29.38090071 9.01573521 29.38090071 9.01573521 30.16796875 12.140625 C30.33876953 12.81867188 30.50957031 13.49671875 30.68554688 14.1953125 C30.85119141 14.87335938 31.01683594 15.55140625 31.1875 16.25 C31.36474609 16.94351562 31.54199219 17.63703125 31.72460938 18.3515625 C32.55677523 21.70592989 33 24.51842512 33 28 C33.66 28 34.32 28 35 28 C35.23783203 26.9790625 35.23783203 26.9790625 35.48046875 25.9375 C37.5961341 17.14755334 40.25358217 8.61039103 43 0 C51.25 0 59.5 0 68 0 C68 18.81 68 37.62 68 57 C62.06 57 56.12 57 50 57 C49.67 47.43 49.34 37.86 49 28 C47.11151112 35.6722451 47.11151112 35.6722451 45.23095703 43.34643555 C44.99231934 44.308479 44.75368164 45.27052246 44.5078125 46.26171875 C44.26691895 47.24100342 44.02602539 48.22028809 43.77783203 49.22924805 C43 52 43 52 41 57 C36.05 57 31.1 57 26 57 C22.535 45.615 22.535 45.615 19 34 C18.71223378 39.32426708 18.71223378 39.32426708 18.43188477 44.64892578 C18.39377686 45.3242334 18.35566895 45.99954102 18.31640625 46.6953125 C18.27974854 47.37609863 18.24309082 48.05688477 18.20532227 48.75830078 C17.95208038 51.52318424 17.45644667 54.26131995 17 57 C11.39 57 5.78 57 0 57 C0 38.19 0 19.38 0 0 Z " fill="#F9F9F9" transform="translate(714,413)"/>
<path d="M0 0 C0.60473145 0.31573975 1.20946289 0.63147949 1.83251953 0.95678711 C7.38844715 3.9023311 12.7678059 7.1416857 18.1328125 10.41796875 C23.46233637 13.66427061 28.85742596 16.79745571 34.25 19.9375 C35.2716626 20.53353027 36.2933252 21.12956055 37.34594727 21.74365234 C42.27330553 24.61505508 47.20778187 27.47272171 52.16015625 30.30078125 C53.46871582 31.05029053 53.46871582 31.05029053 54.80371094 31.81494141 C56.43348284 32.74719124 58.06552722 33.67548348 59.70019531 34.59912109 C60.42432617 35.01371582 61.14845703 35.42831055 61.89453125 35.85546875 C62.52206299 36.2114917 63.14959473 36.56751465 63.79614258 36.93432617 C65.60934163 38.13489829 67.01725235 39.47808147 68.5 41.0625 C67.38882813 41.08828125 66.27765625 41.1140625 65.1328125 41.140625 C56.469789 41.43582249 49.37149031 42.14155088 41.5 46.0625 C40.62859375 46.35253906 39.7571875 46.64257812 38.859375 46.94140625 C36.0188107 48.29114459 35.60446756 49.18451241 34.5 52.0625 C34.17 52.69929688 33.84 53.33609375 33.5 53.9921875 C31.46918416 57.94275894 29.78146789 61.79094035 28.5 66.0625 C22.52257387 63.65055612 17.02645654 60.73127073 11.5 57.4375 C10.8289624 57.04119385 10.1579248 56.6448877 9.46655273 56.23657227 C4.62376909 53.31003818 4.62376909 53.31003818 3.5 51.0625 C4.16 48.0925 4.82 45.1225 5.5 42.0625 C-11.99 42.0625 -29.48 42.0625 -47.5 42.0625 C-47.5 41.7325 -47.5 41.4025 -47.5 41.0625 C-41.56 41.0625 -35.62 41.0625 -29.5 41.0625 C-29.54640625 39.061875 -29.5928125 37.06125 -29.640625 35 C-29.66846482 33.03729247 -29.69615266 31.07457981 -29.71972656 29.11181641 C-29.74946045 27.09902373 -29.80031729 25.08657866 -29.8515625 23.07421875 C-29.93753608 14.519848 -29.7065725 8.39231193 -23.5 2.00390625 C-22.84 1.54886719 -22.18 1.09382813 -21.5 0.625 C-20.84 0.15191406 -20.18 -0.32117188 -19.5 -0.80859375 C-12.95572542 -4.50252999 -6.4326692 -3.37715133 0 0 Z " fill="#2872BA" transform="translate(511.5,370.9375)"/>
<path d="M0 0 C4.54072423 4.01273304 8.32816815 10.24640099 8.86450195 16.40869141 C8.93140404 18.93924297 8.97244603 21.4687084 9 24 C9.02900391 24.86496094 9.05800781 25.72992188 9.08789062 26.62109375 C9.16256202 34.28352747 7.26774227 40.23686751 2.375 46.1875 C-8.17547259 54.77509397 -19.23504168 55.47826614 -32.3125 54.375 C-39.14310622 53.06524784 -43.36620845 49.99768987 -47.83984375 44.765625 C-52.0721836 37.89508922 -52.81232667 31.77348828 -52.75 23.875 C-52.76998047 22.97652344 -52.78996094 22.07804687 -52.81054688 21.15234375 C-52.8052522 13.87745787 -51.19176758 8.60292889 -46.3125 3.1328125 C-45.6525 2.59398437 -44.9925 2.05515625 -44.3125 1.5 C-43.6525 0.94570313 -42.9925 0.39140625 -42.3125 -0.1796875 C-30.86236671 -8.45419789 -11.96766395 -5.87092949 0 0 Z " fill="#F6F6F6" transform="translate(679.3125,416.625)"/>
<path d="M0 0 C1.15048828 0.00483398 1.15048828 0.00483398 2.32421875 0.00976562 C3.07574219 -0.00634766 3.82726562 -0.02246094 4.6015625 -0.0390625 C9.48496271 -0.04332376 12.89959759 0.53918485 17.07421875 3.32226562 C19.12890625 5.66992188 19.12890625 5.66992188 20.94921875 8.38476562 C24.76445052 13.90874985 28.84365499 19.1096067 33.07421875 24.32226562 C33.73421875 16.40226562 34.39421875 8.48226563 35.07421875 0.32226562 C40.68421875 0.32226562 46.29421875 0.32226562 52.07421875 0.32226562 C52.07421875 19.13226563 52.07421875 37.94226563 52.07421875 57.32226562 C36.07421875 57.32226562 36.07421875 57.32226562 30.07421875 53.32226562 C27.87890625 50.66601562 27.87890625 50.66601562 25.94921875 47.82226562 C24.02743477 45.01291073 22.25372764 42.49989812 19.83203125 40.10351562 C18.07421875 38.32226562 18.07421875 38.32226562 18.07421875 36.32226562 C17.41421875 36.32226562 16.75421875 36.32226562 16.07421875 36.32226562 C15.41421875 35.33226562 14.75421875 34.34226562 14.07421875 33.32226562 C13.98333984 35.29259766 13.98333984 35.29259766 13.890625 37.30273438 C13.80618619 39.03842103 13.72153987 40.77409761 13.63671875 42.50976562 C13.59740234 43.37408203 13.55808594 44.23839844 13.51757812 45.12890625 C13.47568359 45.97001953 13.43378906 46.81113281 13.390625 47.67773438 C13.35396729 48.44754639 13.31730957 49.2173584 13.27954102 50.01049805 C13.0610121 52.47096216 12.55865492 54.90008476 12.07421875 57.32226562 C5.80421875 57.32226562 -0.46578125 57.32226562 -6.92578125 57.32226562 C-8.76411436 49.53296485 -9.20534537 42.30968012 -9.11328125 34.32226562 C-9.10538574 33.14414307 -9.09749023 31.96602051 -9.08935547 30.75219727 C-9.02160013 23.75097139 -8.88053866 16.75382566 -8.55078125 9.75976562 C-8.52008545 9.02306641 -8.48938965 8.28636719 -8.45776367 7.52734375 C-8.07493186 0.96451277 -6.49675874 0.0627982 0 0 Z " fill="#FDFBFA" transform="translate(303.92578125,412.677734375)"/>
<path d="M0 0 C2.24658203 -0.34057617 2.24658203 -0.34057617 5.0078125 -0.29296875 C5.99394531 -0.28330078 6.98007812 -0.27363281 7.99609375 -0.26367188 C9.02863281 -0.23853516 10.06117188 -0.21339844 11.125 -0.1875 C12.68541016 -0.16719727 12.68541016 -0.16719727 14.27734375 -0.14648438 C16.85207627 -0.11105228 19.4257833 -0.06165221 22 0 C24.71917778 5.26307882 27.06819866 10.48794642 29.09375 16.05078125 C29.3671521 16.79023483 29.6405542 17.52968842 29.92224121 18.29154968 C30.78579426 20.63030836 31.64298696 22.97133803 32.5 25.3125 C33.07380318 26.86929386 33.648019 28.42593569 34.22265625 29.98242188 C35.32499997 32.97047244 36.42246101 35.96023964 37.515625 38.95166016 C38.43120114 41.45606902 39.35873575 43.95451263 40.296875 46.45068359 C40.66296875 47.4298877 41.0290625 48.4090918 41.40625 49.41796875 C41.87514648 50.65776489 41.87514648 50.65776489 42.35351562 51.92260742 C43 54 43 54 43 57 C36.4 57 29.8 57 23 57 C21 53 21 53 21 49 C14.4 49 7.8 49 1 49 C0.67 51.31 0.34 53.62 0 56 C-1 57 -1 57 -2.85766602 57.11352539 C-4.04380493 57.10567017 -4.04380493 57.10567017 -5.25390625 57.09765625 C-6.10791016 57.09443359 -6.96191406 57.09121094 -7.84179688 57.08789062 C-8.73962891 57.07951172 -9.63746094 57.07113281 -10.5625 57.0625 C-11.46419922 57.05798828 -12.36589844 57.05347656 -13.29492188 57.04882812 C-15.53001634 57.03700223 -17.76496493 57.01968245 -20 57 C-18.8638358 49.51920861 -17.06795958 42.6879991 -14.375 35.625 C-14.02743652 34.69324951 -13.67987305 33.76149902 -13.32177734 32.80151367 C-12.59321789 30.85383576 -11.86026103 28.90779744 -11.12304688 26.96337891 C-9.99364855 23.98324045 -8.8785848 20.99803048 -7.765625 18.01171875 C-7.05290673 16.1116701 -6.33939365 14.21191936 -5.625 12.3125 C-5.29161621 11.42191895 -4.95823242 10.53133789 -4.61474609 9.61376953 C-4.30102051 8.7886084 -3.98729492 7.96344727 -3.6640625 7.11328125 C-3.39029785 6.38923096 -3.1165332 5.66518066 -2.83447266 4.91918945 C-2 3 -2 3 0 0 Z " fill="#FAF8F6" transform="translate(400,413)"/>
<path d="M0 0 C17.49 0 34.98 0 53 0 C53 7.87301587 53 7.87301587 50.796875 10.8046875 C50.07612793 11.79190796 50.07612793 11.79190796 49.34082031 12.79907227 C48.81584961 13.48412842 48.29087891 14.16918457 47.75 14.875 C46.65575228 16.36031054 45.56201834 17.84599969 44.46875 19.33203125 C43.90027344 20.09338379 43.33179688 20.85473633 42.74609375 21.63916016 C39.84343466 25.56375655 37.05323078 29.56664609 34.25 33.5625 C31.65125 37.2440625 31.65125 37.2440625 29 41 C37.25 41.66 45.5 42.32 54 43 C54 47.62 54 52.24 54 57 C35.52 57 17.04 57 -2 57 C-2 48.02729045 -2 48.02729045 1.4375 43.8125 C2.16195313 42.88050781 2.88640625 41.94851563 3.6328125 40.98828125 C4.41398437 40.00214844 5.19515625 39.01601563 6 38 C11.85591468 30.35621757 16.08131061 23.59344695 18 14 C12.06 14 6.12 14 0 14 C0 9.38 0 4.76 0 0 Z " fill="#FAFBFC" transform="translate(464,413)"/>
<path d="M0 0 C2.83035597 0.02981591 5.66056868 0.05141646 8.49104691 0.06523895 C35.01177536 0.20766694 35.01177536 0.20766694 47.09092903 4.81611252 C49.42331638 5.48608129 51.75653952 6.15315363 54.09092903 6.81611252 C55.59217183 7.47637019 57.07714422 8.17727841 58.52842903 8.94111252 C59.20776497 9.29431564 59.88710091 9.64751877 60.58702278 10.01142502 C61.08331184 10.27697189 61.57960091 10.54251877 62.09092903 10.81611252 C62.09092903 11.47611252 62.09092903 12.13611252 62.09092903 12.81611252 C62.64780403 12.97466721 63.20467903 13.13322189 63.77842903 13.29658127 C69.33559781 14.99564807 74.56250703 17.07738808 79.09092903 20.81611252 C79.09092903 21.47611252 79.09092903 22.13611252 79.09092903 22.81611252 C79.98005989 23.05547531 80.86919075 23.2948381 81.78526497 23.54145432 C85.42363452 24.94440316 87.24269117 26.46538689 89.98155403 29.21064377 C90.85553841 30.08398361 91.72952278 30.95732346 92.62999153 31.85712814 C93.52460091 32.77171799 94.41921028 33.68630783 95.34092903 34.62861252 C96.25100716 35.5316008 97.16108528 36.43458908 98.09874153 37.36494064 C102.112135 41.41703894 105.06838068 44.44755564 107.09092903 49.81611252 C107.75092903 50.14611252 108.41092903 50.47611252 109.09092903 50.81611252 C110.12528459 52.46167818 111.11856416 54.13317332 112.09092903 55.81611252 C113.17374153 57.30111252 113.17374153 57.30111252 114.27842903 58.81611252 C116.14554993 61.90651953 116.50482573 63.2979906 116.09092903 66.81611252 C113.83408211 63.90383401 111.88314924 60.8980389 109.96592903 57.75361252 C97.677189 38.33532921 81.22286752 25.27820885 61.09092903 14.81611252 C60.13444466 14.31080002 59.17796028 13.80548752 58.19249153 13.28486252 C41.63500143 5.13042295 23.9604901 4.66067395 5.87584114 4.68671799 C4.27523954 4.68535939 2.67463826 4.68357689 1.07403755 4.68140793 C-3.25552941 4.67687084 -7.58507236 4.67861241 -11.91463971 4.68178701 C-16.51812563 4.68435046 -21.12160973 4.68196026 -25.72509575 4.68040085 C-33.50330272 4.67858207 -41.28150021 4.68096887 -49.05970573 4.68574142 C-56.91680847 4.69050871 -64.77389214 4.69061472 -72.6309948 4.68574142 C-95.8833691 4.67195585 -119.13525469 4.69259248 -142.3874644 4.78692269 C-146.48113781 4.80349087 -150.57479828 4.81855366 -154.66849327 4.82863998 C-163.14490957 4.84960103 -171.62042243 4.89213784 -180.09644699 4.97825623 C-182.54128975 4.99990272 -184.98621851 5.01368003 -187.43115234 5.01850128 C-205.71699806 5.06500509 -221.13543616 7.38669872 -237.50282097 15.77705002 C-238.29688347 16.11994064 -239.09094597 16.46283127 -239.90907097 16.81611252 C-240.56907097 16.48611252 -241.22907097 16.15611252 -241.90907097 15.81611252 C-232.13954514 7.674841 -218.35442945 4.14545518 -205.90907097 2.69111252 C-205.23618034 2.60474533 -204.56328972 2.51837814 -203.87000847 2.42939377 C-200.58500722 2.02986659 -197.40794709 1.81713941 -194.09657097 1.82392502 C-190.88601579 1.98281725 -190.88601579 1.98281725 -187.90907097 0.81611252 C-185.97745404 0.71123974 -184.04243981 0.66538389 -182.10803032 0.65116501 C-180.28862434 0.63431404 -180.28862434 0.63431404 -178.43246269 0.61712265 C-177.08408984 0.60962069 -175.7357164 0.60222378 -174.38734245 0.59492111 C-172.96690874 0.58369853 -171.54647821 0.57206599 -170.12605095 0.56005478 C-166.24384566 0.52860485 -162.36162301 0.50349834 -158.4793632 0.47985792 C-155.18987424 0.45929806 -151.90040893 0.43577862 -148.61093956 0.41232073 C-140.76901757 0.35650056 -132.92707327 0.30592032 -125.08509636 0.25849533 C-118.03882185 0.21580302 -110.99261809 0.16740986 -103.94642448 0.11298752 C-69.29887555 -0.15324996 -34.64759858 -0.36762134 0 0 Z " fill="#060300" transform="translate(627.9090709686279,258.18388748168945)"/>
<path d="M0 0 C8.93351392 3.93074613 16.83550991 8.05075862 21.5625 16.9375 C22.36960504 22.58723528 21.9745888 27.19004937 19.25 32.25 C14.67676246 37.83951255 10.03560571 41.42956879 3.8125 44.9375 C2.29392722 45.80799459 0.77569657 46.67908631 -0.7421875 47.55078125 C-1.47276367 47.9679541 -2.20333984 48.38512695 -2.95605469 48.81494141 C-6.36952256 50.79403518 -9.69762972 52.91069373 -13.01953125 55.0390625 C-15 56 -15 56 -19 56 C-19 53.36 -19 50.72 -19 48 C-18.41992188 47.75765625 -17.83984375 47.5153125 -17.2421875 47.265625 C-9.51053329 43.94841362 -2.63932171 40.64600209 1.09277344 32.66235352 C2.03976045 29.88331869 2.25804075 27.76492772 2.265625 24.83984375 C2.26820313 23.88142578 2.27078125 22.92300781 2.2734375 21.93554688 C2.26570312 20.94619141 2.25796875 19.95683594 2.25 18.9375 C2.25773438 17.94427734 2.26546875 16.95105469 2.2734375 15.92773438 C2.26957031 14.49204102 2.26957031 14.49204102 2.265625 13.02734375 C2.26336914 12.15843506 2.26111328 11.28952637 2.25878906 10.39428711 C1.9805557 7.82010356 1.160641 6.28468781 0 4 C0 2.68 0 1.36 0 0 Z " fill="#5BE3EA" transform="translate(598,422)"/>
<path d="M0 0 C3.125 2.4375 3.125 2.4375 5 5 C5.33 5.33 5.66 5.66 6 6 C6.12717273 8.94863292 6.18521566 11.86342268 6.1875 14.8125 C6.19974609 15.63298828 6.21199219 16.45347656 6.22460938 17.29882812 C6.22750977 18.49088867 6.22750977 18.49088867 6.23046875 19.70703125 C6.23457764 20.4338208 6.23868652 21.16061035 6.24291992 21.90942383 C5.84202586 25.35953022 4.61954076 27.44041479 2.0625 29.75 C-2.6807878 31.68603584 -6.97482259 32.07997234 -12 31 C-15.38300774 28.96632168 -16.728964 26.70035481 -18 23 C-18.38111678 20.21448472 -18.62779761 17.66409131 -18.6875 14.875 C-18.70707764 14.194375 -18.72665527 13.51375 -18.74682617 12.8125 C-18.61328197 7.18035882 -16.82868367 4.81130689 -13 1 C-9.04852828 -0.97573586 -4.29584552 -0.57649875 0 0 Z " fill="#070707" transform="translate(663,426)"/>
<path d="M0 0 C3.125 2.4375 3.125 2.4375 5 5 C5.33 5.33 5.66 5.66 6 6 C6.20824525 8.91245853 6.32476741 11.77172669 6.375 14.6875 C6.41238281 15.49123047 6.44976563 16.29496094 6.48828125 17.12304688 C6.55098591 21.3834799 6.34682248 24.14393053 3.6015625 27.51953125 C-0.60295051 31.5283387 -3.71031072 31.39241627 -9.36328125 31.35546875 C-12 31 -12 31 -14.5625 28.6875 C-15.036875 27.800625 -15.51125 26.91375 -16 26 C-16.66 25.01 -17.32 24.02 -18 23 C-18.27528114 20.34281259 -18.41580858 17.84590431 -18.4375 15.1875 C-18.47037109 14.48818359 -18.50324219 13.78886719 -18.53710938 13.06835938 C-18.57814516 9.08042718 -18.15017738 6.69241788 -15.59765625 3.55078125 C-10.99982828 -0.96407839 -6.23070275 -0.83615491 0 0 Z " fill="#4EC9E3" transform="translate(577,426)"/>
<path d="M0 0 C0 3.81641973 -1.02556956 4.48118055 -3.5 7.3125 C-24.22606706 32.5792602 -27.19685798 62.4846706 -27.625 93.9375 C-27.66326532 96.27800796 -27.70232171 98.61850313 -27.7421875 100.95898438 C-27.83724089 106.63920772 -27.92254646 112.31951081 -28 118 C-28.763125 117.360625 -29.52625 116.72125 -30.3125 116.0625 C-34.68977803 112.7031936 -38.87132239 112.72071994 -44.1875 112.4375 C-45.31188477 112.37272461 -45.31188477 112.37272461 -46.45898438 112.30664062 C-48.30578375 112.20077315 -50.15286834 112.0999024 -52 112 C-49.66725808 109.66725808 -48.93229685 109.66725175 -45.75 109.375 C-44.95207031 109.30152344 -44.15414063 109.22804688 -43.33203125 109.15234375 C-40.5487177 108.97051925 -37.78812854 108.92850952 -35 109 C-32.20100887 102.06336982 -31.52499179 95.66052075 -31.2109375 88.2578125 C-31 85 -31 85 -30 82 C-29.81814781 80.18574865 -29.68095066 78.3668578 -29.5703125 76.546875 C-27.98860261 52.35854965 -24.26801349 32.14853966 -10 12 C-9.29230469 10.98550781 -8.58460938 9.97101563 -7.85546875 8.92578125 C-2.34620159 1.17310079 -2.34620159 1.17310079 0 0 Z " fill="#010101" transform="translate(351,301)"/>
<path d="M0 0 C0.33 0 0.66 0 1 0 C1 18.81 1 37.62 1 57 C0.34 57 -0.32 57 -1 57 C-2.92402963 49.27335864 -3.2790146 41.939739 -3.1875 34 C-3.17960449 32.82187744 -3.17170898 31.64375488 -3.16357422 30.42993164 C-3.09581888 23.42870577 -2.95475741 16.43156004 -2.625 9.4375 C-2.5943042 8.70080078 -2.5636084 7.96410156 -2.53198242 7.20507812 C-2.24249862 2.24249862 -2.24249862 2.24249862 0 0 Z " fill="#000000" transform="translate(298,413)"/>
<path d="M0 0 C2.49006289 0.97035441 3.74255982 1.51195703 5.01171875 3.91796875 C6.41113589 8.61774538 7.48079667 13.11948871 8 18 C4.04 18 0.08 18 -4 18 C-2.82307733 11.94725482 -1.54736698 5.9684155 0 0 Z " fill="#161616" transform="translate(409,431)"/>
<path d="M0 0 C0 3.81641973 -1.02556956 4.48118055 -3.5 7.3125 C-16.18714704 22.77916336 -24.74163926 42.99640335 -26 63 C-29.42616013 57.70035905 -27.22170746 51.80654221 -26 46 C-25.1944883 42.90723284 -24.16807035 39.97326997 -23 37 C-22.65066406 36.07703125 -22.30132812 35.1540625 -21.94140625 34.203125 C-18.00836864 24.24802652 -10.31255284 5.15627642 0 0 Z " fill="#0B0500" transform="translate(351,301)"/>
<path d="M0 0 C0.6199585 0.19086182 1.23991699 0.38172363 1.87866211 0.57836914 C0.87448242 1.17262695 -0.12969727 1.76688477 -1.16430664 2.37915039 C-9.4815403 7.3884979 -17.0792184 12.69689394 -24.35180664 19.13305664 C-26.88261958 21.3675967 -29.46768937 23.49232003 -32.12133789 25.57836914 C-30.51148795 21.38875967 -27.423501 18.72216077 -24.18383789 15.76586914 C-23.31964233 14.97128296 -23.31964233 14.97128296 -22.43798828 14.16064453 C-18.07539883 10.23904751 -13.5192345 6.96990804 -8.46118164 3.98071289 C-6.08216497 2.64117904 -6.08216497 2.64117904 -4.06274414 0.83227539 C-2.12133789 -0.42163086 -2.12133789 -0.42163086 0 0 Z " fill="#0F0700" transform="translate(384.121337890625,275.421630859375)"/>
<path d="M0 0 C7.92 0 15.84 0 24 0 C22.68 2.64 21.36 5.28 20 8 C19.01 7.67 18.02 7.34 17 7 C17.33 5.02 17.66 3.04 18 1 C12.06 1 6.12 1 0 1 C0 0.67 0 0.34 0 0 Z " fill="#5C80A5" transform="translate(464,426)"/>
<path d="M0 0 C3.96 1.98 7.92 3.96 12 6 C12 6.33 12 6.66 12 7 C8.04 7 4.08 7 0 7 C0 4.69 0 2.38 0 0 Z " fill="#2B7BBF" transform="translate(483,405)"/>
<path d="M0 0 C0 3.90669288 -1.27850235 4.9073988 -3.75 7.875 C-4.44609375 8.71804688 -5.1421875 9.56109375 -5.859375 10.4296875 C-6.91898437 11.70199219 -6.91898437 11.70199219 -8 13 C-9.33670328 14.66396511 -10.67105146 16.32983494 -12 18 C-11.50723636 13.33171286 -9.37895211 10.34659613 -6.5625 6.75 C-6.15451172 6.20859375 -5.74652344 5.6671875 -5.32617188 5.109375 C-2.287519 1.1437595 -2.287519 1.1437595 0 0 Z " fill="#1A0C01" transform="translate(351,301)"/>
<path d="M0 0 C3 1 3 1 4.16796875 2.9609375 C4.50441406 3.75757813 4.84085938 4.55421875 5.1875 5.375 C5.70376953 6.56222656 5.70376953 6.56222656 6.23046875 7.7734375 C7 10 7 10 7 13 C6.34 13 5.68 13 5 13 C4.16209211 11.21046815 3.32980604 9.41830305 2.5 7.625 C1.80390625 6.12839844 1.80390625 6.12839844 1.09375 4.6015625 C0 2 0 2 0 0 Z " fill="#100700" transform="translate(744,325)"/>
<path d="M0 0 C3.3767072 2.21232541 5.25967192 4.34531103 7 8 C7.1875 10.8125 7.1875 10.8125 7 13 C0 4.25 0 4.25 0 0 Z " fill="#120900" transform="translate(737,312)"/>
</svg>
